<?xml version="1.0" encoding="utf-8"?>
<!-- Generator: Adobe Illustrator 25.0.1, SVG Export Plug-In . SVG Version: 6.00 Build 0)  -->
<svg version="1.1" id="Layer_1" xmlns="http://www.w3.org/2000/svg" xmlns:xlink="http://www.w3.org/1999/xlink" x="0px" y="0px"
	 viewBox="0 0 48 48" style="enable-background:new 0 0 48 48;" xml:space="preserve">
<style type="text/css">
	.st0{fill:#CC1D1D;}
</style>
<path class="st0" d="M35.1,14.1L40,19c0,0,2,0,1-2c-0.7-1.5-1.3-3-1.7-4.6C38.2,13.5,36.7,14.1,35.1,14.1z"/>
<path d="M42.9,27.5C41.5,24,40.5,23.5,29,12c-0.6-0.5-0.6-1.4,0-2c0.3-0.3,0.6-0.4,1-0.4c0.7,0,1,0.4,1.8,1.2c1.7,1.9,4.6,2,6.5,0.3
	c1.9-1.7,2-4.6,0.3-6.5c-0.1-0.1-0.2-0.2-0.3-0.3c-6.3-6.3-17.6-2.7-17.6,5.5c0,3.8,1.5,4.9,8,12.2c5,0.3,8.7,4.6,8.4,9.6
	c-0.3,4.7-4.2,8.4-9,8.4h-7c-8.8,0-16-7.2-16-16v-1.3c-0.3-0.2-0.7-0.5-1-0.7c0,6.3-0.5,12.7,5.9,19.1c6.6,6.7,13.7,5.9,20,5.9
	C37.7,47,44,40.7,44,32.9C44,31,43.6,29.2,42.9,27.5z"/>
<path d="M21,38c7,0,9.4,0.5,12-2c2.7-2.7,2.7-7.2,0-9.9c-0.6-0.6-1.3-1.1-2-1.4C29,23.8,30.2,24,7,24C7,31.7,13.3,38,21,38z M19,33
	h9c1.1,0,2-0.9,2-2c0-1.1-0.9-2-2-2c-0.6,0-1-0.4-1-1c0-2.1,5-0.8,5,3c0,2.2-1.8,4-4,4h-9c-0.6,0-1-0.4-1-1S18.4,33,19,33z"/>
</svg>
