<svg xmlns="http://www.w3.org/2000/svg" viewBox="0 0 48 48"><path d="M35.09,14.09,40,19s2,0,1-2a22.8,22.8,0,0,1-1.66-4.55A6.45,6.45,0,0,1,35.09,14.09Z"/><path d="M42.92,27.45C41.5,24,40.47,23.47,29,12a1.41,1.41,0,0,1,1-2.41c.74,0,1,.44,1.75,1.16a4.6,4.6,0,1,0,6.49-6.51C31.9-2.1,20.59,1.49,20.59,9.77c0,3.81,1.51,4.85,8,12.25A9,9,0,0,1,28,40H21A16,16,0,0,1,5,24V22.68c-.34-.22-.67-.45-1-.68,0,6.27-.55,12.73,5.86,19.14,6.65,6.65,13.73,5.86,20,5.86A14.14,14.14,0,0,0,42.92,27.45Z"/><path d="M21,38c7,0,9.36.54,12-2a7,7,0,0,0-2-11.31C29.05,23.78,30.24,24,7,24A14,14,0,0,0,21,38Zm-2-5h9a2,2,0,0,0,0-4,1,1,0,0,1-1-1c0-2.1,5-.81,5,3a4,4,0,0,1-4,4H19A1,1,0,0,1,19,33Z"/></svg>