<?xml version="1.0" standalone="no"?>
<!DOCTYPE svg PUBLIC "-//W3C//DTD SVG 20010904//EN"
 "http://www.w3.org/TR/2001/REC-SVG-20010904/DTD/svg10.dtd">
<svg version="1.0" xmlns="http://www.w3.org/2000/svg"
 width="600.000000pt" height="600.000000pt" viewBox="0 0 600.000000 600.000000"
 preserveAspectRatio="xMidYMid meet">
<metadata>
Created by potrace 1.14, written by Peter Selinger 2001-2017
</metadata>
<g transform="translate(0.000000,600.000000) scale(0.100000,-0.100000)"
fill="#000000" stroke="none">
<path d="M4076 5902 c-4 -6 3 -17 13 -24 11 -8 25 -27 31 -42 6 -17 14 -24 22
-20 7 4 8 3 4 -4 -4 -6 0 -26 9 -43 12 -23 13 -29 3 -23 -11 6 -11 5 0 -9 8
-9 14 -32 15 -52 1 -19 4 -35 7 -35 3 0 6 -9 7 -20 1 -11 -2 -18 -7 -15 -6 3
-7 -1 -4 -9 3 -9 11 -13 18 -9 6 3 3 -3 -7 -14 -9 -11 -14 -23 -10 -27 10 -9
11 -46 2 -46 -4 0 -6 -12 -3 -26 3 -17 1 -23 -7 -19 -8 6 -8 2 0 -14 8 -14 8
-21 1 -21 -5 0 -9 -3 -9 -7 1 -5 0 -11 -1 -15 -1 -5 -4 -12 -5 -18 -1 -5 -4
-12 -5 -15 -1 -3 -3 -13 -5 -22 -5 -46 -30 -111 -39 -106 -6 4 -8 3 -4 -2 4
-4 2 -15 -5 -23 -10 -13 -9 -15 3 -8 8 4 7 1 -3 -7 -13 -11 -15 -17 -6 -23 9
-5 7 -11 -6 -21 -11 -7 -15 -13 -9 -13 5 0 0 -7 -10 -15 -12 -9 -15 -15 -7
-15 7 0 3 -9 -10 -21 -13 -11 -18 -18 -12 -14 9 4 11 1 7 -9 -3 -9 -11 -13
-18 -9 -6 4 -4 -2 4 -12 8 -10 11 -16 5 -13 -5 3 -16 0 -23 -8 -8 -9 -9 -14
-2 -14 8 0 7 -5 -2 -15 -30 -33 -34 -41 -30 -54 3 -8 0 -11 -6 -7 -12 7 -25
-22 -15 -36 3 -6 1 -8 -4 -5 -6 4 -17 -1 -24 -10 -12 -14 -12 -16 1 -8 10 5 9
1 -3 -13 -12 -12 -16 -26 -11 -34 5 -9 2 -8 -11 2 -17 14 -18 13 -12 -2 3 -10
0 -24 -8 -32 -8 -8 -15 -19 -15 -25 0 -6 -15 -25 -32 -43 -18 -17 -26 -28 -18
-24 8 4 6 0 -4 -8 -11 -9 -17 -16 -13 -16 5 0 2 -6 -5 -14 -7 -8 -17 -11 -22
-8 -5 3 -7 -2 -4 -10 4 -8 -1 -22 -10 -31 -24 -22 -42 -45 -44 -54 0 -5 -15
-20 -31 -34 -19 -17 -28 -32 -24 -42 4 -10 2 -14 -6 -11 -7 2 -20 -9 -30 -26
-10 -16 -15 -30 -12 -30 4 0 -1 -7 -9 -16 -9 -8 -14 -20 -11 -25 4 -5 -1 -6
-9 -3 -11 4 -16 0 -16 -15 0 -12 -5 -21 -11 -21 -5 0 -8 -4 -5 -9 3 -5 -1 -12
-10 -15 -8 -3 -12 -10 -9 -16 3 -5 1 -10 -5 -10 -6 0 -15 -12 -20 -26 -6 -15
-20 -40 -32 -57 -12 -17 -17 -27 -10 -23 8 5 10 2 6 -8 -3 -9 -10 -13 -15 -10
-5 3 -9 -4 -9 -15 0 -12 -5 -21 -11 -21 -5 0 -7 -4 -4 -10 3 -5 2 -10 -4 -10
-6 0 -7 -7 -4 -17 4 -11 3 -14 -5 -9 -8 5 -10 2 -6 -8 3 -9 2 -16 -4 -16 -5 0
-13 -7 -16 -16 -4 -10 -2 -13 7 -9 6 4 5 1 -4 -7 -16 -13 -19 -19 -19 -39 0
-5 -6 -7 -12 -3 -10 5 -10 4 -1 -6 9 -10 8 -16 -3 -27 -17 -18 -19 -37 -1 -27
8 5 8 3 -2 -9 -7 -9 -18 -14 -25 -10 -8 4 -7 2 1 -7 12 -14 6 -43 -8 -35 -4 3
-6 -4 -4 -16 3 -12 1 -27 -3 -33 -7 -11 -8 -17 -11 -37 0 -5 -4 -8 -9 -5 -4 2
-6 -14 -4 -36 4 -32 2 -39 -9 -32 -12 7 -12 5 0 -9 12 -15 11 -17 -5 -17 -11
0 -15 -4 -9 -8 11 -8 16 -52 5 -52 -3 0 -6 -10 -5 -22 1 -13 -2 -28 -7 -35 -6
-7 -3 -15 9 -22 17 -10 17 -10 -2 -11 -11 -1 -14 -4 -8 -7 9 -3 10 -10 4 -22
-5 -9 -6 -23 -1 -30 4 -8 4 -26 0 -41 -4 -15 -4 -33 0 -39 4 -7 6 -23 4 -37
-1 -13 2 -24 8 -24 7 0 6 -5 -1 -14 -9 -11 -8 -18 4 -30 9 -9 12 -16 6 -16 -6
0 -8 -7 -5 -15 4 -8 11 -12 17 -8 6 4 7 1 1 -8 -12 -20 -14 -39 -2 -39 5 0 8
-13 6 -29 -1 -16 2 -35 8 -42 22 -28 28 -43 14 -34 -8 5 -7 -1 3 -16 20 -27
22 -43 5 -33 -7 4 -8 3 -4 -5 4 -6 11 -9 16 -6 9 5 22 -26 19 -41 -4 -14 23
-64 34 -64 6 0 7 -3 4 -7 -4 -3 -1 -13 6 -21 10 -13 9 -15 -3 -8 -9 4 -8 2 2
-7 10 -8 15 -17 11 -20 -3 -4 0 -7 7 -7 7 0 10 -3 7 -7 -4 -3 1 -12 11 -20 11
-10 12 -12 2 -8 -13 6 -13 5 0 -7 8 -7 16 -20 18 -28 2 -8 10 -21 19 -27 9 -7
13 -13 8 -13 -4 0 0 -9 10 -20 10 -11 15 -20 11 -20 -4 0 -1 -6 6 -14 7 -8 18
-11 23 -8 6 3 4 -1 -3 -10 -10 -13 -10 -17 3 -22 8 -3 15 -10 15 -16 0 -18 42
-70 52 -64 5 3 8 2 7 -3 -2 -16 13 -53 21 -48 11 7 22 -24 13 -37 -3 -7 -1 -8
5 -4 7 4 18 -7 28 -26 9 -18 23 -37 30 -41 8 -4 14 -15 14 -22 0 -8 5 -15 11
-15 5 0 7 -5 4 -10 -3 -6 1 -13 10 -16 13 -6 14 -8 3 -15 -10 -7 -8 -9 6 -9
11 0 16 -5 13 -14 -3 -8 2 -16 13 -19 24 -6 33 18 14 38 -11 11 -12 15 -3 15
7 0 4 6 -7 15 -12 9 -14 14 -6 15 7 0 10 5 7 10 -4 6 -12 7 -18 3 -8 -5 -8 -2
1 9 10 12 8 20 -10 44 -19 25 -20 27 -3 14 19 -15 19 -15 1 14 -10 16 -12 25
-5 21 9 -6 10 -4 3 6 -5 8 -10 25 -10 39 -3 40 -3 42 -16 34 -10 -6 -10 -4 0
8 10 13 10 17 0 21 -11 4 -11 6 0 6 9 1 10 6 2 20 -7 14 -6 21 3 24 8 4 8 6 1
6 -8 1 -10 14 -7 37 3 21 1 34 -4 31 -5 -4 -10 0 -10 8 0 8 5 11 10 8 6 -4 8
2 5 14 -3 12 -2 26 2 33 4 7 4 26 0 42 -6 19 -5 26 2 22 7 -5 9 2 6 20 -4 19
-1 26 11 27 9 0 11 3 4 5 -8 4 -9 13 -3 29 5 12 6 26 3 29 -4 3 -2 6 3 6 5 0
11 11 12 24 1 13 7 37 13 52 7 16 11 33 10 38 -1 5 4 6 12 3 10 -4 13 1 9 20
-3 17 -1 24 6 19 6 -4 9 4 7 20 -2 18 2 24 11 20 9 -3 16 5 21 22 3 15 13 33
22 40 12 11 13 12 1 6 -13 -7 -13 -5 -1 9 7 9 17 15 21 12 4 -3 7 3 6 13 0 9
4 16 11 15 7 -2 10 4 7 12 -4 8 -1 15 6 15 6 0 8 4 5 10 -4 6 1 7 11 3 12 -4
15 -3 10 5 -4 7 -2 12 4 12 7 0 10 7 6 15 -3 8 -2 14 2 14 18 -3 33 2 28 9 -3
5 8 19 25 32 16 14 29 32 29 40 0 12 2 13 9 1 7 -11 10 -9 16 8 6 20 17 26 40
21 6 -1 7 2 3 6 -8 8 53 54 71 54 6 0 11 5 11 10 0 6 9 10 21 10 11 0 17 4 14
10 -3 6 4 10 17 10 13 0 29 5 34 10 6 6 24 13 40 16 16 3 32 11 36 17 5 9 8 8
8 -3 0 -9 3 -11 8 -4 11 16 45 27 36 11 -6 -9 -4 -9 7 -1 17 14 219 15 219 1
0 -5 6 -4 14 2 10 8 16 9 21 1 3 -5 15 -10 26 -10 10 0 19 -6 19 -12 0 -9 4
-8 10 2 6 10 10 11 10 3 0 -7 9 -13 20 -13 12 0 20 -7 20 -17 0 -15 2 -16 10
-3 8 13 10 12 10 -2 0 -10 7 -18 15 -18 8 0 15 -5 15 -10 0 -6 11 -15 25 -22
13 -6 22 -15 19 -20 -3 -4 2 -11 11 -14 13 -5 13 -9 3 -22 -8 -10 -8 -13 -2
-9 13 7 25 -13 31 -53 2 -14 8 -26 14 -28 5 -2 9 -11 9 -21 0 -9 6 -23 13 -29
6 -7 12 -18 12 -25 0 -7 9 -11 18 -9 16 3 17 0 7 -17 -10 -21 -4 -27 23 -22 5
1 6 -3 2 -9 -3 -5 -1 -10 5 -10 6 0 8 -4 5 -10 -3 -5 1 -10 9 -10 9 0 18 -11
22 -25 3 -14 9 -23 14 -20 4 2 16 -3 26 -11 10 -9 12 -12 4 -8 -8 4 -5 -3 8
-15 21 -21 22 -41 1 -41 -6 0 -7 6 -3 13 5 7 1 7 -10 -2 -14 -12 -19 -12 -26
-2 -6 11 -9 11 -13 0 -4 -11 -7 -12 -18 -1 -7 6 -23 12 -36 12 -13 0 -23 5
-23 11 0 6 -9 9 -20 6 -11 -3 -20 -1 -20 5 0 6 -7 7 -16 4 -8 -3 -12 -2 -9 4
4 6 -8 10 -27 10 -25 0 -29 3 -18 10 11 7 5 10 -23 10 -28 0 -36 3 -31 13 4 6
4 9 0 5 -4 -3 -26 0 -48 8 -49 17 -51 17 -43 2 4 -7 0 -5 -8 5 -8 10 -17 13
-18 8 -3 -7 -14 -6 -32 4 -19 9 -25 10 -20 2 4 -7 -1 -6 -11 2 -15 13 -19 13
-27 0 -5 -8 -9 -9 -9 -3 0 7 -21 12 -55 12 -35 0 -52 -4 -48 -11 4 -6 1 -7 -8
-1 -19 11 -51 16 -45 6 4 -7 -17 -10 -87 -12 -10 -1 -21 -8 -24 -16 -4 -11 -8
-12 -13 -5 -4 8 -14 5 -29 -8 -12 -11 -31 -18 -42 -16 -11 2 -17 0 -14 -6 4
-5 -1 -9 -10 -9 -9 0 -13 -5 -10 -11 4 -6 0 -9 -11 -7 -12 2 -18 -2 -16 -11 2
-8 -3 -11 -12 -8 -8 3 -17 -1 -20 -9 -3 -9 -10 -12 -16 -9 -6 3 -7 -1 -4 -9 4
-11 0 -16 -14 -16 -12 0 -23 -9 -27 -20 -4 -11 -11 -18 -16 -15 -5 4 -9 1 -9
-5 0 -6 -13 -24 -29 -39 -23 -22 -27 -32 -18 -41 9 -10 9 -11 0 -6 -15 8 -31
-21 -28 -51 1 -13 -3 -19 -8 -16 -6 4 -8 0 -4 -10 3 -10 2 -17 -3 -17 -6 0
-10 5 -10 12 0 6 -2 9 -5 6 -10 -10 7 -38 19 -31 7 4 7 2 -1 -8 -10 -12 -10
-18 0 -29 9 -10 9 -11 0 -6 -17 9 -17 -6 0 -23 9 -11 9 -13 0 -7 -7 4 -13 3
-13 -1 0 -5 6 -15 13 -22 10 -11 9 -13 -3 -7 -8 4 -6 0 4 -8 11 -9 15 -16 8
-16 -6 0 -9 -7 -6 -15 4 -8 9 -13 13 -10 4 2 7 -9 6 -25 -1 -17 2 -30 7 -30 5
0 7 -4 4 -9 -3 -5 4 -21 16 -37 13 -16 16 -25 8 -20 -11 5 -11 4 1 -6 9 -7 15
-21 13 -30 -1 -10 4 -18 12 -18 8 0 13 -3 13 -7 -3 -20 2 -34 11 -28 6 3 10
-5 10 -19 0 -14 6 -29 14 -33 14 -8 16 -12 16 -34 0 -5 5 -7 12 -3 6 4 8 3 4
-4 -3 -6 0 -16 7 -24 8 -7 12 -19 9 -27 -3 -8 0 -11 7 -7 6 4 12 2 12 -3 1 -6
2 -17 3 -23 1 -7 8 -12 15 -10 7 1 10 -2 7 -7 -4 -5 -2 -12 3 -16 6 -3 8 -12
4 -21 -3 -9 0 -14 7 -12 7 2 16 -8 20 -22 4 -14 12 -24 19 -22 7 1 10 -2 6 -8
-3 -6 3 -22 14 -36 11 -14 17 -32 14 -40 -3 -9 0 -14 8 -12 7 2 15 -6 17 -16
2 -11 11 -26 19 -34 8 -8 12 -21 9 -29 -3 -8 -1 -11 4 -8 6 3 10 -1 10 -10 0
-8 7 -18 15 -21 8 -4 12 -10 9 -15 -8 -14 16 -40 29 -32 6 3 7 1 3 -6 -10 -15
3 -53 15 -45 5 3 8 2 7 -3 -1 -4 4 -19 11 -31 7 -13 10 -26 7 -30 -3 -3 -6 1
-6 8 0 7 -3 10 -7 7 -3 -4 4 -19 18 -34 13 -14 17 -22 9 -18 -11 6 -10 3 3
-12 9 -11 14 -23 10 -26 -3 -4 -1 -7 5 -7 6 0 9 -7 6 -15 -4 -9 0 -15 7 -15
11 0 11 -2 -1 -10 -12 -8 -12 -10 2 -15 10 -4 15 -17 14 -36 -2 -20 3 -29 13
-30 11 0 12 -2 3 -6 -10 -4 -10 -8 0 -21 11 -12 11 -16 0 -20 -10 -3 -8 -8 5
-19 10 -8 11 -11 3 -7 -13 7 -13 5 -2 -9 8 -9 11 -21 7 -27 -3 -5 -1 -10 6
-10 9 0 9 -3 0 -14 -9 -11 -9 -15 0 -18 7 -2 12 -20 13 -40 1 -27 -3 -34 -14
-31 -8 2 -4 -3 10 -11 14 -8 20 -15 13 -16 -12 0 -12 -17 0 -37 4 -6 4 -14 -1
-17 -5 -3 -7 -30 -6 -61 1 -30 -1 -53 -6 -50 -8 5 -5 -39 5 -54 3 -6 2 -11 -4
-11 -5 0 -8 -9 -6 -20 2 -11 -1 -20 -7 -20 -7 0 -6 -6 2 -15 11 -13 8 -18 -10
-17 -3 0 -5 -22 -4 -48 0 -27 -4 -47 -8 -44 -4 3 -8 -7 -8 -21 0 -18 -4 -24
-12 -19 -10 5 -10 4 -2 -5 9 -10 8 -20 -2 -40 -8 -16 -15 -40 -16 -55 -1 -14
-6 -26 -11 -26 -4 0 -5 -4 -2 -10 3 -5 1 -10 -5 -10 -6 0 -9 -4 -6 -9 4 -5 2
-11 -4 -13 -5 -1 -11 -15 -12 -30 -1 -16 -6 -28 -11 -28 -5 0 -7 -7 -3 -15 3
-8 1 -15 -5 -15 -6 0 -8 -8 -5 -17 4 -10 4 -14 0 -10 -9 9 -45 -43 -38 -55 3
-4 -1 -11 -10 -14 -8 -3 -12 -12 -10 -19 3 -7 0 -16 -5 -20 -6 -3 -8 -11 -5
-17 5 -8 1 -9 -12 -4 -10 4 -15 4 -11 0 4 -4 1 -14 -6 -22 -10 -13 -9 -15 3
-8 9 4 8 1 -2 -7 -10 -8 -18 -21 -18 -30 0 -8 -7 -17 -15 -21 -8 -3 -15 -10
-15 -16 0 -6 6 -8 13 -5 6 4 4 0 -5 -8 -21 -17 -23 -26 -5 -23 29 7 46 19 40
30 -3 6 -3 8 2 4 4 -4 15 -2 23 5 13 10 15 9 8 -3 -4 -8 0 -6 8 4 9 11 16 16
16 12 0 -4 7 0 16 8 8 9 20 14 25 11 5 -4 9 1 9 10 0 9 5 13 10 10 6 -3 10 -1
10 5 0 6 4 8 10 5 5 -3 21 5 34 18 13 13 31 22 39 21 9 -1 15 1 14 4 -1 4 2 8
7 9 5 1 12 7 17 15 5 7 14 13 21 13 7 1 12 6 11 13 -2 7 1 11 5 9 13 -4 102
56 96 65 -3 4 -1 8 5 8 15 0 131 81 131 92 0 5 4 7 9 3 5 -3 13 4 16 15 5 17
9 19 21 9 9 -7 14 -8 13 -3 -1 5 1 17 6 27 6 15 10 16 16 5 7 -11 9 -11 9 1 0
16 46 61 54 53 3 -3 6 0 6 6 0 7 7 12 15 12 9 0 12 6 8 17 -4 9 -2 14 3 10 6
-3 21 7 34 24 25 29 48 40 34 17 -4 -8 -3 -10 2 -5 5 5 10 13 10 18 1 5 2 13
3 19 0 5 5 9 10 7 5 -1 10 3 11 8 2 6 17 20 33 33 17 12 28 22 24 22 -4 0 6
13 23 30 16 16 30 34 30 40 0 6 5 8 10 5 6 -3 10 -1 10 5 0 6 5 8 12 4 6 -4 8
-3 4 4 -3 6 7 23 22 39 16 15 36 40 46 55 10 15 22 25 27 22 8 -5 13 11 7 19
-2 2 10 15 26 30 16 15 26 27 22 27 -4 0 6 12 21 26 15 15 21 23 13 18 -9 -5
-7 -1 3 8 11 10 17 24 14 32 -4 11 -1 13 11 9 9 -3 14 -3 10 2 -4 4 3 16 15
27 12 11 15 17 7 13 -8 -4 -6 1 4 9 11 9 17 16 13 16 -5 0 -2 6 5 14 7 8 17
11 22 8 5 -3 6 1 1 8 -4 7 -2 16 6 20 7 5 14 17 15 27 2 9 8 19 13 21 6 2 11
10 11 17 0 8 8 21 18 31 9 10 16 19 15 21 -8 10 -1 23 9 17 8 -5 9 -2 5 9 -3
9 -2 19 4 22 5 4 7 11 3 16 -3 5 0 8 8 7 8 -2 12 4 10 16 -2 10 1 15 6 12 6
-3 13 1 16 10 3 8 2 12 -4 9 -5 -3 -2 7 7 24 10 16 21 28 24 25 4 -2 5 5 2 16
-3 12 1 22 10 26 9 3 13 12 10 20 -3 7 2 17 11 20 9 3 14 10 11 14 -3 4 2 22
11 39 9 18 13 39 10 48 -5 13 -4 14 8 4 12 -10 13 -8 9 10 -4 14 -2 20 4 16 7
-5 9 1 5 15 -4 16 -2 19 8 13 9 -5 11 -4 6 4 -4 6 -2 18 4 26 6 8 9 19 5 25
-3 5 -1 10 5 10 6 0 8 5 5 10 -3 6 0 10 7 10 9 0 9 3 -2 10 -11 7 -11 10 -2
10 7 0 11 4 8 9 -3 5 1 15 10 22 14 12 14 14 -3 20 -17 7 -17 8 2 8 17 1 17 3
5 11 -13 8 -12 10 4 10 13 0 17 5 13 20 -3 11 -1 22 3 25 5 3 9 13 9 23 2 45
6 62 13 62 4 0 7 3 7 8 -3 20 2 43 9 38 5 -3 9 1 9 9 0 8 -5 11 -10 8 -7 -4
-7 1 -2 13 4 10 8 27 9 37 0 9 4 17 8 17 5 0 4 10 -3 21 -6 12 -7 19 -1 15 5
-3 12 1 16 9 3 8 0 15 -7 15 -8 0 -9 3 -1 8 6 4 10 17 9 30 -1 12 2 22 7 22 5
0 6 4 3 10 -3 5 -1 18 5 29 7 14 7 22 -1 27 -8 5 -6 10 5 16 16 9 16 11 -1 31
-10 11 -12 17 -5 13 7 -4 12 -2 13 6 0 7 2 21 4 31 2 9 0 15 -4 13 -4 -3 -7 4
-7 14 0 10 4 16 8 14 11 -7 7 438 -4 460 -8 14 -7 17 4 11 10 -6 11 -5 1 6 -7
7 -13 17 -13 22 0 4 6 5 13 1 8 -5 8 -3 -2 9 -7 9 -11 28 -9 42 3 14 2 25 -1
25 -4 0 -6 20 -6 45 0 25 -4 45 -9 45 -4 0 -6 7 -2 15 3 8 0 15 -6 15 -9 0 -9
3 -1 11 9 9 9 15 -1 24 -7 7 -11 27 -10 44 1 17 -3 31 -8 31 -6 0 -5 6 2 15 8
10 9 15 2 15 -7 0 -9 7 -5 17 5 12 3 14 -8 8 -12 -7 -12 -6 -1 7 10 12 10 18
-2 27 -9 8 -13 24 -10 44 3 25 1 29 -7 17 -9 -12 -10 -11 -6 8 3 12 2 22 -2
22 -7 0 -11 15 -12 53 0 9 -3 17 -7 17 -4 0 -9 9 -10 20 -4 43 -6 50 -13 50
-5 0 -6 7 -2 15 3 9 -3 25 -13 37 -13 14 -14 19 -4 13 12 -6 13 -5 3 6 -7 7
-13 19 -13 27 0 7 -7 20 -15 28 -8 9 -15 21 -15 27 0 7 4 6 10 -3 5 -8 10 -10
10 -4 0 6 -7 17 -15 24 -8 7 -12 16 -9 21 3 5 0 9 -6 9 -6 0 -8 5 -5 11 4 5 0
18 -7 27 -24 27 -33 46 -19 37 10 -5 9 -2 0 13 -7 12 -16 19 -19 17 -4 -2 -6
9 -5 25 1 17 -2 27 -8 23 -6 -4 -8 1 -4 11 4 10 3 15 -3 11 -6 -3 -10 1 -10 9
0 9 -4 16 -10 16 -5 0 -10 5 -10 11 0 5 5 7 11 3 8 -4 8 0 0 15 -7 11 -16 21
-21 21 -6 0 -10 5 -10 11 0 5 6 7 13 4 6 -4 1 2 -13 13 -14 12 -22 24 -18 27
3 4 -3 16 -14 27 -11 11 -17 26 -14 34 3 9 1 12 -4 9 -6 -3 -10 1 -10 9 0 9
-5 16 -11 16 -5 0 -7 5 -4 10 3 6 1 10 -6 10 -7 0 -10 3 -6 6 3 4 -1 13 -9 21
-8 9 -13 22 -10 30 3 8 2 12 -3 9 -4 -3 -14 6 -21 19 -7 14 -17 25 -22 25 -5
0 -7 4 -3 10 3 5 -3 18 -13 28 -10 10 -18 26 -16 36 2 14 0 15 -12 5 -8 -7
-14 -8 -13 -3 4 17 -19 60 -45 84 -14 14 -26 31 -26 38 0 6 -5 12 -11 12 -5 0
-8 4 -5 9 3 5 -1 11 -9 15 -8 3 -15 10 -15 16 0 15 -26 41 -34 33 -3 -4 -6 -1
-6 6 0 12 -11 28 -44 61 -10 11 -15 24 -11 31 5 8 4 10 -3 5 -7 -4 -12 -3 -12
3 0 6 -7 7 -17 4 -11 -4 -14 -3 -9 6 10 15 -12 43 -27 34 -6 -3 -7 -1 -3 5 4
7 2 12 -3 12 -6 0 -11 8 -11 17 0 9 -3 13 -6 10 -7 -7 -64 52 -64 67 0 4 -7 6
-15 2 -8 -3 -14 -2 -12 2 4 14 -32 54 -42 47 -7 -3 -10 -2 -9 4 4 16 -112 122
-126 114 -6 -3 -8 -3 -4 2 7 7 -14 35 -27 35 -12 0 -34 28 -27 35 4 4 0 5 -8
3 -8 -1 -14 2 -13 9 2 7 -3 10 -11 7 -8 -3 -21 4 -29 16 -9 14 -20 19 -28 15
-8 -5 -10 -4 -5 3 4 7 1 12 -6 12 -7 0 -24 12 -38 26 -24 26 -67 49 -84 45 -5
-1 -6 5 -3 13 4 9 3 15 -1 15 -21 -4 -32 2 -26 14 4 6 4 9 -1 5 -4 -4 -15 -2
-23 5 -13 10 -15 9 -8 -3 4 -8 1 -7 -8 4 -8 10 -20 15 -27 10 -7 -4 -10 -3 -5
4 7 12 -81 65 -95 56 -5 -3 -9 2 -9 10 0 9 -9 16 -20 16 -11 0 -20 3 -20 8 0
4 -9 13 -21 20 -12 8 -18 9 -15 3 4 -7 1 -8 -8 -5 -9 3 -16 13 -16 21 0 13 -3
13 -15 3 -12 -10 -15 -10 -15 0 0 7 -7 10 -15 6 -8 -3 -14 0 -12 7 1 6 -8 13
-20 15 -13 2 -23 8 -23 14 0 6 -9 8 -20 5 -11 -3 -20 -1 -20 5 0 6 -7 8 -14 5
-10 -4 -13 -1 -10 7 3 7 -1 13 -8 14 -7 0 -23 4 -34 7 -12 4 -25 2 -28 -3z
m-492 -3268 c3 -8 2 -12 -4 -9 -6 3 -10 10 -10 16 0 14 7 11 14 -7z"/>
<path d="M675 5070 c6 -10 4 -12 -10 -7 -14 6 -16 3 -12 -14 3 -11 3 -19 0
-16 -9 10 -40 -28 -35 -42 4 -10 1 -12 -8 -6 -10 6 -12 4 -6 -11 4 -10 4 -15
0 -12 -9 10 -32 -15 -27 -29 3 -6 -4 -17 -15 -24 -11 -7 -18 -18 -15 -25 2 -7
-5 -15 -18 -19 -17 -6 -19 -9 -8 -16 10 -6 10 -9 2 -9 -7 0 -15 -11 -19 -25
-3 -14 -10 -22 -15 -19 -8 4 -10 -1 -9 -21 1 -3 -6 -13 -15 -21 -8 -9 -13 -19
-10 -24 3 -4 -2 -11 -11 -14 -9 -4 -14 -13 -10 -21 3 -8 0 -14 -6 -12 -7 1
-13 -2 -13 -8 -4 -24 -18 -44 -28 -38 -6 3 -7 1 -3 -6 4 -6 -2 -24 -13 -40
-11 -15 -18 -31 -14 -35 3 -3 1 -6 -6 -6 -7 0 -9 -4 -6 -10 3 -5 1 -10 -5 -10
-6 0 -8 -4 -5 -10 3 -5 1 -10 -5 -10 -7 0 -10 -7 -6 -15 3 -9 0 -15 -10 -15
-8 0 -12 -5 -9 -11 4 -5 -1 -19 -11 -30 -9 -10 -13 -19 -9 -19 5 0 0 -7 -11
-16 -10 -8 -13 -12 -6 -9 11 6 12 3 3 -14 -7 -11 -17 -21 -23 -21 -6 0 -5 -6
3 -17 8 -9 9 -14 2 -10 -7 4 -14 -1 -18 -13 -3 -11 -12 -20 -18 -20 -7 0 -6
-4 3 -10 11 -7 11 -10 2 -10 -7 0 -12 -6 -10 -14 2 -8 -6 -22 -17 -31 -11 -9
-15 -14 -9 -11 7 3 14 -1 17 -9 4 -9 1 -12 -9 -8 -13 5 -18 -7 -15 -36 2 -8
-2 -10 -10 -5 -9 5 -10 2 -6 -9 3 -9 2 -17 -3 -19 -5 -2 -10 -10 -12 -18 -2
-8 -7 -18 -13 -22 -6 -5 -5 -8 3 -8 7 0 10 -5 7 -10 -4 -6 -12 -7 -18 -3 -7 4
-5 -2 3 -12 8 -10 10 -16 4 -12 -16 9 -25 -28 -10 -43 8 -8 7 -10 -5 -5 -10 4
-20 1 -25 -6 -5 -8 -3 -10 7 -4 12 8 12 6 0 -8 -9 -11 -10 -17 -2 -17 6 0 11
-5 11 -12 0 -6 -3 -8 -7 -5 -10 11 -31 -37 -21 -50 6 -7 4 -15 -4 -20 -13 -8
-20 -32 -19 -70 1 -13 -3 -23 -7 -23 -5 0 -9 -6 -9 -12 0 -7 -4 -22 -9 -32 -6
-15 -4 -17 7 -11 12 8 12 6 1 -8 -8 -9 -10 -22 -6 -28 5 -9 2 -10 -11 -5 -13
5 -15 3 -8 -6 6 -7 9 -22 7 -33 -2 -11 -5 -35 -6 -52 -2 -18 -7 -33 -12 -33
-6 0 -5 -5 2 -12 7 -7 8 -17 2 -28 -5 -9 -5 -22 1 -31 5 -7 9 -18 9 -24 0 -5
-5 -3 -10 5 -8 13 -10 12 -10 -2 0 -10 6 -18 13 -18 8 0 8 -3 1 -8 -11 -8 -13
-143 -2 -136 4 3 6 -8 4 -23 -1 -16 4 -38 12 -51 13 -21 13 -22 -4 -15 -18 6
-18 6 -1 -14 14 -16 15 -22 5 -26 -8 -4 -6 -6 5 -6 10 -1 15 -5 12 -11 -3 -5
-1 -19 6 -31 8 -15 8 -19 0 -15 -6 4 -11 3 -11 -2 0 -6 7 -13 16 -16 9 -4 14
-13 10 -21 -3 -8 0 -15 6 -15 6 0 9 -3 5 -6 -3 -4 1 -21 10 -38 10 -17 16 -37
15 -44 -2 -7 4 -15 12 -18 9 -3 13 -10 10 -15 -3 -5 2 -12 10 -15 9 -3 16 -10
16 -16 0 -5 -6 -6 -13 -3 -6 4 -2 -3 11 -14 13 -11 21 -25 17 -31 -3 -6 0 -7
10 -4 9 4 15 2 13 -4 -4 -14 20 -49 59 -88 20 -21 28 -34 20 -38 -7 -2 -4 -5
6 -5 9 -1 17 -6 17 -12 0 -5 5 -7 10 -4 6 3 10 -1 10 -10 0 -9 4 -13 10 -10 5
3 10 1 10 -5 0 -15 26 -41 34 -33 3 4 6 -2 6 -12 0 -10 3 -15 7 -12 3 4 12 -1
20 -11 9 -11 12 -11 7 -2 -4 8 10 -1 30 -20 50 -48 75 -70 81 -70 3 0 10 0 16
0 5 0 7 -4 4 -10 -3 -5 3 -10 14 -10 12 0 21 -4 21 -10 0 -5 7 -10 15 -10 8 0
15 -4 15 -10 0 -5 7 -10 15 -10 8 0 15 -4 15 -10 0 -5 9 -10 21 -10 11 0 17
-4 14 -10 -3 -5 3 -10 14 -10 12 0 21 -5 21 -10 0 -6 3 -9 8 -9 19 3 33 -2 27
-10 -3 -6 4 -8 15 -6 12 2 20 -1 20 -10 0 -7 12 -15 28 -17 15 -2 26 -8 25
-14 -1 -8 6 -10 19 -6 16 4 19 2 13 -8 -5 -8 -4 -11 2 -7 5 3 22 -1 37 -9 16
-7 35 -14 42 -14 8 0 14 -4 14 -10 0 -5 9 -10 20 -10 12 0 32 -7 45 -16 13 -9
29 -13 35 -9 5 3 10 1 10 -4 0 -6 7 -11 16 -11 9 0 12 -5 8 -12 -6 -10 -5 -10
8 -1 12 11 18 9 33 -7 15 -16 21 -18 33 -7 13 9 14 9 8 0 -4 -8 -1 -13 8 -13
9 0 16 -6 16 -12 0 -9 4 -8 10 2 9 13 14 8 12 -11 -1 -4 8 -5 18 -2 13 3 20 0
20 -8 0 -11 2 -11 10 1 5 8 10 10 10 4 0 -7 10 -15 23 -19 35 -12 59 -18 70
-16 4 0 7 -3 7 -7 0 -4 10 -8 22 -9 11 -1 24 -6 27 -10 5 -7 23 -12 59 -15 6
-1 12 -6 12 -11 0 -6 3 -7 7 -4 3 4 17 0 31 -9 13 -9 21 -11 18 -5 -11 18 5
13 21 -7 8 -10 11 -11 7 -2 -7 13 -5 13 9 2 9 -8 21 -11 27 -7 5 3 10 1 10 -4
0 -6 11 -11 25 -11 14 0 25 -4 25 -8 0 -5 7 -9 15 -10 8 -1 22 -3 30 -4 8 -1
15 -5 15 -9 0 -4 13 -6 29 -5 17 1 27 -2 25 -9 -3 -6 9 -12 28 -13 18 -2 35
-8 39 -14 4 -6 14 -8 22 -5 9 3 18 -1 21 -10 5 -13 9 -13 23 -2 14 12 16 12 8
0 -6 -11 -3 -13 13 -9 12 3 20 1 19 -4 -1 -6 11 -12 28 -14 16 -2 31 -8 33
-14 2 -5 8 -10 13 -10 6 0 7 6 3 13 -4 6 4 2 18 -11 13 -12 28 -22 34 -22 5 0
2 5 -6 10 -9 6 -10 10 -3 10 7 0 17 -8 22 -17 6 -10 11 -13 11 -6 0 7 7 10 15
7 8 -4 13 -9 11 -13 -3 -4 7 -8 22 -9 15 -1 29 -7 30 -12 2 -6 13 -10 24 -10
10 0 27 -7 35 -16 12 -11 18 -12 23 -4 5 8 9 6 14 -5 4 -11 13 -15 25 -12 10
2 22 -3 29 -14 7 -11 18 -15 32 -12 12 3 20 0 20 -7 0 -7 8 -10 20 -7 11 3 18
0 17 -6 -1 -6 7 -13 18 -15 11 -2 22 -7 25 -11 10 -12 50 -31 65 -31 9 0 13
-4 10 -10 -3 -6 1 -7 9 -4 11 4 16 0 16 -12 0 -15 2 -16 9 -5 7 11 13 9 29 -7
11 -11 23 -18 26 -15 3 3 16 -6 29 -21 18 -19 26 -23 35 -14 9 9 12 8 12 -4 0
-9 9 -20 20 -23 11 -3 20 -11 20 -16 0 -5 7 -9 15 -9 8 0 15 -4 15 -10 0 -5 6
-10 14 -10 7 0 28 -18 46 -40 18 -22 36 -37 41 -34 5 3 9 -1 9 -9 0 -8 9 -17
20 -20 13 -3 18 -11 14 -20 -3 -8 2 -17 11 -21 9 -3 13 -11 10 -16 -4 -6 -1
-17 5 -25 9 -11 9 -15 1 -15 -6 0 -11 -5 -11 -11 0 -5 4 -8 9 -5 5 3 12 -1 15
-10 4 -12 2 -15 -9 -10 -13 4 -14 2 -5 -14 7 -14 7 -20 0 -20 -5 0 -10 -5 -10
-11 0 -5 5 -7 11 -4 6 4 5 -2 -2 -13 -7 -12 -17 -18 -23 -15 -5 4 -7 -1 -3
-10 4 -11 -1 -18 -15 -23 -16 -5 -18 -8 -7 -15 11 -7 11 -9 -2 -9 -9 0 -20 -7
-23 -16 -3 -8 -11 -12 -16 -9 -6 4 -9 1 -8 -7 2 -7 -5 -12 -14 -12 -10 1 -15
-2 -12 -7 3 -5 -7 -14 -21 -19 -14 -5 -24 -14 -21 -19 4 -5 -3 -7 -14 -4 -12
3 -22 -1 -26 -11 -3 -9 -10 -14 -14 -11 -5 3 -11 1 -15 -5 -4 -6 -11 -8 -16
-5 -5 4 -9 1 -9 -5 0 -7 -7 -9 -15 -6 -9 3 -18 -1 -22 -10 -3 -8 -12 -13 -20
-10 -8 3 -11 1 -8 -4 3 -6 -3 -10 -14 -10 -12 0 -21 -5 -21 -11 0 -8 -6 -7
-17 2 -9 8 -14 9 -10 3 4 -7 -3 -14 -18 -18 -17 -4 -23 -11 -19 -19 5 -9 4 -9
-6 0 -10 9 -19 9 -42 -3 -16 -8 -34 -12 -40 -8 -8 5 -9 1 -4 -11 5 -15 4 -16
-8 -6 -11 9 -17 8 -29 -3 -11 -11 -17 -12 -26 -3 -8 8 -11 8 -11 -2 0 -7 -5
-9 -10 -6 -6 4 -17 1 -25 -5 -8 -7 -26 -10 -40 -8 -13 3 -22 2 -20 -2 3 -5 -2
-11 -11 -14 -23 -9 -26 -8 -18 7 6 9 5 9 -8 0 -8 -7 -18 -10 -21 -6 -4 3 -7 1
-7 -6 0 -9 -5 -9 -20 -1 -14 8 -20 8 -20 0 0 -6 -4 -8 -10 -5 -5 3 -10 0 -10
-7 0 -9 -3 -9 -10 2 -9 13 -10 13 -10 0 0 -12 -2 -12 -9 -1 -6 9 -11 10 -15 2
-4 -6 -12 -11 -17 -11 -6 0 -7 6 -3 12 6 9 3 9 -9 0 -9 -8 -21 -11 -27 -7 -5
3 -10 2 -10 -4 0 -6 -11 -6 -31 -1 -24 7 -30 6 -26 -4 3 -7 -1 -13 -9 -13 -9
0 -13 6 -9 15 4 12 3 13 -10 2 -8 -7 -15 -9 -15 -5 0 4 -6 2 -14 -4 -11 -9
-16 -9 -22 0 -5 8 -3 9 6 4 9 -5 11 -4 6 4 -6 9 -11 9 -22 0 -8 -6 -14 -8 -14
-3 0 4 -5 3 -12 -4 -7 -7 -17 -12 -22 -12 -6 0 -4 5 4 11 11 7 7 9 -17 5 -18
-2 -36 0 -39 5 -4 6 -11 6 -19 -1 -10 -8 -14 -7 -18 2 -3 7 -6 9 -6 3 -1 -8
-62 -12 -81 -5 -3 2 -9 2 -14 1 -5 -1 -13 4 -17 11 -7 10 -9 10 -9 -1 0 -11
-4 -9 -15 5 -8 10 -15 15 -14 9 3 -22 -2 -29 -11 -15 -9 13 -10 13 -10 0 0
-11 -2 -12 -8 -2 -5 7 -29 13 -55 15 -26 1 -47 5 -47 10 0 4 -5 7 -11 7 -5 0
-7 -6 -3 -12 6 -10 4 -10 -8 0 -8 7 -31 14 -49 15 -19 2 -40 6 -47 11 -6 4
-16 5 -21 1 -5 -3 -12 -1 -16 4 -3 6 -12 8 -20 4 -8 -3 -15 -1 -15 5 0 5 -7
12 -14 15 -11 4 -13 1 -9 -10 5 -14 3 -14 -19 1 -13 9 -28 13 -31 9 -4 -3 -7
-2 -7 4 0 5 -6 10 -12 10 -43 3 -80 11 -90 21 -6 6 -17 8 -26 5 -11 -5 -13 -2
-7 6 6 10 3 11 -15 1 -13 -7 -20 -8 -16 -2 3 6 2 13 -4 17 -5 3 -10 1 -10 -6
0 -7 -8 -5 -20 6 -11 10 -23 15 -27 12 -3 -4 -12 1 -20 11 -8 9 -12 12 -9 5 4
-7 -1 -11 -14 -10 -11 1 -18 7 -16 13 3 8 -3 10 -16 6 -13 -3 -19 -1 -15 5 4
6 -4 9 -18 7 -18 -1 -25 3 -25 14 0 10 -3 13 -8 7 -8 -11 -44 -17 -38 -6 2 3
-7 14 -19 24 -15 10 -26 13 -30 7 -4 -6 -10 -8 -15 -5 -21 13 0 -31 26 -54 16
-14 23 -21 14 -16 -13 9 -13 8 -1 -7 7 -10 20 -18 29 -18 8 0 13 -3 9 -6 -8
-8 18 -34 33 -34 6 0 8 -5 5 -10 -3 -6 1 -10 10 -10 11 0 15 -5 11 -16 -3 -8
-2 -13 2 -10 5 3 15 -4 22 -15 8 -10 20 -19 28 -19 7 0 10 -4 7 -10 -3 -5 -1
-10 5 -10 6 0 24 -14 40 -30 16 -17 32 -30 35 -30 13 0 34 -28 27 -35 -4 -5
-2 -5 5 -1 6 3 14 2 18 -4 4 -6 11 -7 17 -4 7 4 8 2 4 -4 -4 -7 -2 -12 4 -12
6 0 8 -5 4 -12 -4 -7 -3 -8 5 -4 6 4 14 0 17 -9 5 -12 9 -13 14 -5 5 9 10 6
14 -8 4 -12 16 -24 27 -27 10 -4 19 -11 19 -17 0 -5 7 -7 16 -4 8 3 12 2 9 -4
-3 -6 1 -10 10 -10 9 0 13 -4 10 -10 -3 -5 0 -10 8 -10 7 0 23 -9 35 -20 12
-12 22 -18 22 -14 0 4 8 0 18 -9 10 -10 22 -14 27 -10 4 5 5 2 1 -4 -4 -7 -2
-13 4 -13 6 0 9 -4 5 -9 -3 -6 4 -8 15 -6 11 2 20 0 20 -4 0 -5 14 -14 30 -21
17 -7 30 -16 30 -21 0 -4 10 -9 23 -11 12 -2 21 -9 20 -15 -1 -6 7 -9 20 -6
18 4 19 3 7 -6 -12 -9 -10 -11 13 -11 20 0 26 -4 21 -12 -5 -8 0 -7 11 2 10 8
16 11 13 5 -5 -9 22 -44 29 -37 10 8 33 0 27 -10 -5 -8 0 -9 14 -6 12 4 22 2
22 -3 0 -5 11 -11 25 -15 14 -3 23 -9 21 -13 -3 -4 5 -8 16 -8 12 -1 25 -8 29
-15 5 -7 9 -8 9 -3 0 6 5 3 10 -5 8 -13 10 -13 10 -1 0 10 7 8 21 -8 15 -16
24 -19 29 -11 5 8 9 7 14 -5 3 -10 12 -15 21 -11 8 3 21 -1 29 -9 8 -8 22 -15
30 -15 9 0 16 -5 16 -11 0 -5 5 -7 10 -4 6 4 18 1 27 -7 12 -9 15 -9 9 0 -11
18 5 15 21 -5 9 -11 11 -12 7 -3 -5 10 1 8 16 -5 14 -12 20 -14 15 -5 -8 13
-6 13 8 2 9 -8 22 -10 28 -6 7 4 9 3 6 -3 -4 -6 0 -14 9 -17 8 -3 12 -2 9 4
-3 6 -1 10 4 10 6 0 11 -5 11 -11 0 -5 5 -7 10 -4 6 3 10 2 10 -4 0 -5 8 -8
18 -6 9 1 26 -5 36 -14 11 -9 16 -11 13 -4 -4 6 -3 14 3 18 5 3 10 0 10 -8 0
-8 9 -17 20 -20 11 -3 20 0 20 6 0 7 5 5 10 -3 6 -10 10 -11 10 -2 0 6 5 12
11 12 5 0 8 -4 4 -9 -3 -5 -1 -12 5 -16 5 -3 10 0 10 7 0 9 3 9 8 2 11 -16 42
-25 42 -12 0 6 8 3 19 -6 13 -12 21 -14 26 -6 5 8 11 8 19 1 7 -6 16 -8 19 -4
4 3 7 0 7 -8 0 -10 2 -11 8 -2 6 10 14 9 34 -1 19 -10 29 -11 37 -3 8 8 11 7
11 -2 0 -10 3 -11 14 -2 11 9 16 9 22 0 5 -8 3 -10 -7 -4 -8 5 -11 4 -6 0 4
-5 28 -8 52 -6 27 1 45 -2 45 -8 0 -6 5 -11 11 -11 5 0 7 4 4 10 -3 5 1 10 10
10 9 0 13 -5 9 -11 -4 -7 1 -7 16 1 15 8 20 8 16 1 -4 -6 0 -11 9 -11 10 0 14
5 9 12 -6 10 -4 10 7 1 19 -18 369 -18 388 -1 8 7 11 8 8 2 -3 -6 0 -11 8 -11
8 0 11 5 8 10 -4 6 0 8 9 4 9 -3 19 -3 23 1 3 4 14 7 23 7 9 0 16 6 14 13 -2
10 2 10 18 2 15 -8 20 -8 20 1 0 6 9 9 20 6 11 -3 18 0 17 7 -1 6 8 10 21 10
15 -1 21 3 18 11 -3 8 4 11 20 9 13 -1 22 2 18 7 -3 5 5 9 16 9 15 0 20 5 17
14 -4 9 0 12 11 9 10 -2 28 6 42 19 13 13 28 22 32 21 5 -2 8 2 8 8 0 5 5 7
10 4 6 -3 10 1 10 10 0 9 4 14 9 10 6 -3 14 3 20 12 6 10 11 15 11 11 0 -4 25
18 56 48 31 30 60 54 64 54 5 0 12 9 15 20 4 11 10 18 15 15 4 -3 11 2 14 11
3 8 11 12 17 8 8 -4 9 -3 5 4 -4 7 -2 12 4 12 6 0 8 5 5 10 -6 9 8 14 27 11 5
0 7 2 7 7 -3 19 2 33 11 27 6 -3 10 1 10 9 0 9 7 16 16 16 8 0 13 3 11 8 -3 4
1 13 9 20 8 7 14 9 15 5 0 -4 4 2 10 15 5 13 13 21 17 18 5 -3 14 6 21 20 6
14 16 22 21 19 6 -3 10 1 10 9 0 9 5 16 12 16 6 0 9 3 5 6 -3 3 6 17 20 30 14
13 23 24 19 24 -4 0 -1 6 6 14 7 8 16 12 20 9 4 -2 5 2 2 10 -3 8 0 18 7 23 8
5 10 3 4 -6 -5 -8 -4 -11 3 -6 6 4 9 13 5 21 -3 8 0 15 7 15 6 0 8 5 5 10 -3
6 1 13 9 16 9 3 13 10 10 15 -3 5 -1 9 5 9 6 0 7 7 4 17 -4 10 -2 14 4 10 6
-4 14 0 17 9 4 10 2 13 -6 8 -7 -4 -1 8 12 26 13 18 17 30 9 25 -8 -5 -6 0 4
13 11 11 16 25 13 31 -4 5 -2 12 3 15 5 3 8 19 7 35 -1 17 1 28 5 25 4 -2 10
0 13 5 4 5 2 12 -4 16 -7 4 -5 14 5 28 17 24 20 41 6 33 -5 -4 -7 3 -4 14 3
11 10 17 16 13 6 -4 7 -1 2 8 -12 18 -14 49 -3 43 10 -7 10 -1 -2 30 -6 17 -6
27 1 32 7 4 7 10 0 18 -6 7 -8 16 -4 20 9 9 11 46 3 46 -9 0 -6 32 5 49 5 10
4 12 -3 7 -12 -7 -16 5 -13 32 1 6 -4 12 -11 12 -10 0 -10 2 1 9 11 7 10 13
-4 35 -10 14 -14 26 -11 26 4 0 -2 12 -11 27 -10 15 -12 24 -5 20 6 -5 12 -4
12 2 0 6 -8 11 -17 11 -13 0 -14 3 -6 8 9 6 8 11 -6 22 -11 7 -17 20 -13 28 3
8 -3 21 -13 28 -10 8 -15 14 -11 14 5 0 -3 15 -18 34 -14 19 -26 39 -26 45 0
6 -4 11 -10 11 -5 0 -10 9 -10 21 0 15 -5 19 -16 15 -8 -3 -12 -2 -9 4 8 13
-17 50 -35 50 -13 0 -13 1 0 10 13 8 12 10 -3 10 -10 0 -16 4 -13 9 3 5 -1 11
-9 15 -8 3 -15 12 -15 19 0 7 -11 20 -25 27 -13 7 -24 16 -23 19 2 20 -4 31
-17 31 -14 0 -19 12 -16 33 0 4 -3 7 -9 7 -15 0 -50 33 -50 47 0 7 -5 13 -11
13 -15 0 -119 107 -112 114 4 3 -4 6 -16 6 -12 0 -19 4 -16 10 3 6 -1 10 -10
10 -9 0 -13 5 -10 10 3 5 0 10 -8 10 -22 0 -41 27 -25 33 7 3 4 6 -8 6 -11 1
-30 15 -42 31 -13 17 -27 30 -33 30 -15 0 -39 27 -31 35 4 4 2 6 -3 5 -22 -5
-35 1 -35 15 0 9 -6 12 -15 9 -11 -5 -13 -2 -9 10 4 9 3 16 -2 15 -22 -4 -34
2 -34 17 0 8 -4 12 -10 9 -6 -3 -10 -1 -10 6 0 7 -3 10 -6 6 -8 -8 -44 25 -38
35 3 4 -9 11 -26 15 -22 4 -28 8 -18 14 10 7 9 9 -4 9 -10 0 -18 5 -18 10 0 6
-5 10 -11 10 -16 0 -39 26 -31 36 4 5 -2 2 -12 -6 -13 -10 -17 -10 -12 -2 4 6
3 12 -3 12 -5 0 -12 9 -16 19 -4 13 -13 18 -25 16 -11 -2 -20 0 -20 5 0 14
-49 60 -63 60 -7 0 -19 9 -27 20 -8 11 -20 20 -27 20 -7 0 -17 9 -23 21 -8 13
-17 18 -28 14 -9 -3 -13 -3 -10 1 8 8 -34 44 -52 44 -6 0 -8 5 -5 10 3 6 -3
10 -14 10 -11 0 -22 9 -26 20 -4 11 -11 18 -16 15 -5 -4 -12 1 -15 9 -3 9 -12
16 -20 16 -8 0 -14 5 -14 10 0 6 -7 10 -15 10 -9 0 -18 7 -21 15 -4 8 -10 12
-15 9 -5 -3 -9 0 -9 6 0 6 -5 8 -10 5 -6 -4 -10 -3 -9 2 4 22 -2 32 -16 27 -8
-4 -15 -1 -15 5 0 6 -7 11 -16 11 -8 0 -13 4 -10 9 3 5 -10 16 -29 25 -19 9
-35 21 -35 27 0 6 -3 8 -7 6 -11 -7 -33 19 -25 28 4 4 0 5 -8 3 -9 -2 -14 3
-12 11 3 12 1 12 -15 1 -10 -8 -15 -11 -11 -6 8 10 -15 36 -31 36 -6 0 -11 5
-11 10 0 6 -7 10 -16 10 -8 0 -12 5 -9 10 3 6 -1 10 -10 10 -10 0 -13 5 -9 12
4 6 3 8 -3 5 -6 -4 -23 5 -39 18 -16 14 -35 25 -42 25 -6 0 -11 3 -10 8 2 4 0
8 -5 9 -4 2 -19 14 -33 28 -14 14 -30 22 -36 19 -7 -4 -8 -2 -4 4 4 7 1 12 -9
12 -9 0 -13 5 -10 10 3 6 1 10 -4 10 -6 0 -19 8 -29 18 -10 9 -30 23 -44 31
-15 8 -25 18 -22 23 3 4 -2 8 -10 8 -9 0 -16 5 -16 10 0 6 -4 10 -10 10 -5 0
-25 16 -45 35 -20 21 -40 33 -47 29 -7 -4 -8 -3 -4 4 4 7 2 12 -4 12 -6 0 -26
16 -44 36 -23 25 -38 34 -47 29 -8 -5 -11 -5 -7 0 8 8 -17 38 -27 33 -4 -2
-13 8 -20 22 -8 14 -14 21 -15 16 0 -5 -11 3 -25 18 -13 14 -28 26 -33 26 -6
0 -13 7 -16 16 -3 8 -11 12 -16 9 -6 -4 -10 -3 -9 2 3 20 -2 34 -10 28 -11 -6
-61 40 -61 58 0 7 -4 6 -10 -3 -8 -13 -10 -13 -10 1 0 9 -7 20 -16 23 -8 3
-12 11 -8 17 4 8 3 9 -4 5 -7 -4 -12 -2 -12 4 0 7 -7 9 -16 6 -8 -3 -13 -2
-10 3 8 12 -19 33 -28 23 -4 -4 -6 -2 -4 4 2 6 -12 25 -31 42 -18 18 -29 32
-25 32 5 0 -6 9 -24 20 -18 11 -30 25 -27 30 3 5 -4 7 -16 5 -17 -4 -19 -2 -9
10 7 8 8 15 3 15 -15 0 -53 36 -53 49 0 6 -7 11 -15 11 -9 0 -20 10 -25 23 -5
12 -9 18 -9 14 -1 -4 -7 -2 -15 5 -8 7 -12 16 -9 21 2 4 -3 7 -11 7 -8 0 -18
9 -21 20 -3 11 -11 20 -16 20 -6 0 -7 5 -4 10 3 6 -1 10 -10 10 -9 0 -19 9
-22 20 -3 11 -12 20 -19 20 -8 0 -13 4 -11 9 1 5 -7 17 -18 26 -11 9 -14 13
-6 9 9 -5 12 -3 7 4 -4 7 -14 12 -23 12 -9 0 -13 3 -10 7 4 3 -4 16 -16 27
-13 12 -22 27 -19 34 2 7 -4 12 -13 12 -9 0 -13 5 -10 10 3 6 -1 10 -9 10 -9
0 -15 3 -15 8 4 22 -3 32 -23 32 -15 0 -19 3 -10 8 9 6 7 13 -8 30 -11 11 -20
26 -20 32 0 6 -5 8 -12 4 -8 -5 -9 -2 -5 10 4 9 3 15 -2 12 -8 -6 -23 17 -26
39 0 6 -6 9 -13 7 -7 -1 -12 7 -12 18 0 11 -5 20 -12 20 -6 0 -9 3 -5 6 8 8
-16 33 -26 27 -4 -2 -6 -1 -5 4 1 4 -4 19 -11 32 -11 19 -11 22 1 16 7 -5 5 0
-5 11 -28 30 -69 96 -55 89 7 -4 3 2 -9 13 -12 11 -19 22 -16 26 3 3 -1 14
-10 24 -9 10 -18 30 -19 45 -1 14 -6 23 -10 21 -4 -3 -8 2 -8 10 0 8 -5 18
-12 22 -7 5 -8 3 -3 -6z m2826 -2687 c13 -16 12 -17 -3 -4 -17 13 -22 21 -14
21 2 0 10 -8 17 -17z"/>
</g>
</svg>
